<?xml version="1.0" encoding="utf-8"?>
<!-- Generator: Adobe Illustrator 22.0.1, SVG Export Plug-In . SVG Version: 6.00 Build 0)  -->
<svg version="1.1" id="Calque_1" xmlns="http://www.w3.org/2000/svg" xmlns:xlink="http://www.w3.org/1999/xlink" x="0px" y="0px"
	 viewBox="0 0 230.1 308" style="enable-background:new 0 0 230.1 308;" xml:space="preserve">
<style type="text/css">
	.st0{fill:#FFFFFF;}
	.st1{fill:#003460;}
	.st2{fill:#A6B9D3;}
</style>
<title>logo-itic-paris</title>
<path class="st0" d="M230,0H0v135.2C0,236,115,304,115,304s115-65,115-168.8V0z"/>
<path class="st1" d="M168.7,90.4c-3-2.5-6.6-4.2-10.4-4.8V86c3.5,1.4,8.8,5.1,9,13.8c0,0.3,0.2,0.5,0.5,0.5s0.5-0.2,0.5-0.5l0.6-8.9
	C168.9,90.6,168.8,90.4,168.7,90.4"/>
<path class="st1" d="M167,116.1c-7.3,8.2-23.1,8.3-24.4-10.1c-1-14.3,5.9-18.8,9.2-20.1v-0.3c-5.4,0.9-15.8,4.6-15.8,20.3
	c0,13,10.6,19.4,17.8,19.4c6,0.2,11.5-3.2,14-8.7c0.1-0.2,0.1-0.5-0.2-0.6l0,0C167.4,115.9,167.2,115.9,167,116.1"/>
<path class="st1" d="M74.4,124.1c-1.9-0.1-3.7-0.8-3.7-3.9V89.7c0-0.2-0.1-0.3-0.2-0.4l-4.7-3.1c-0.2-0.1-0.5-0.1-0.7,0.1l0,0
	C65,86.4,65,86.6,65,86.7c0.1,0.6,0.2,1.2,0.2,1.8v31.7c0,3.1-1.7,3.8-3.6,3.9c-0.3,0-0.5,0.2-0.5,0.5v0.2h13.7v-0.2
	C74.8,124.3,74.6,124.1,74.4,124.1"/>
<path class="st1" d="M130.4,124.1c-1.9-0.1-3.7-0.8-3.7-3.9V89.7c0-0.2-0.1-0.3-0.2-0.4l-4.7-3.1c-0.2-0.1-0.5-0.1-0.7,0.1l0,0
	c-0.1,0.1-0.1,0.3-0.1,0.4c0.1,0.6,0.2,1.2,0.2,1.8v31.7c0,3.1-1.7,3.8-3.6,3.9c-0.3,0-0.5,0.2-0.5,0.5v0.2h13.7v-0.2
	C130.8,124.3,130.6,124.1,130.4,124.1"/>
<path class="st1" d="M99.8,122.3V86.5c0-0.3-0.2-0.5-0.4-0.5l0,0h-4.8c-0.3,0-0.5,0.2-0.5,0.5l0,0l0,0V121l0,0v0.2
	c0,0.2,0.1,0.3,0.2,0.4l4.8,3.1c0.2,0.1,0.5,0.1,0.7-0.2c0.1-0.1,0.1-0.3,0.1-0.4C99.7,123.6,99.7,123,99.8,122.3"/>
<path class="st1" d="M80.8,86.3L80.8,86.3c0,0.1-0.1,0.1-0.1,0.2L80,96.1v1.2c0,0.3,0.2,0.5,0.4,0.5h0.7v-0.4l0,0
	c0.7-6.9,4.6-9.8,7.1-10.8V86h-7C81.1,86,80.9,86.1,80.8,86.3"/>
<path class="st1" d="M113.2,86.5L113.2,86.5l-0.1-0.5v0.3c-0.1-0.2-0.2-0.3-0.4-0.3h-7v0.4c2.7,1,6.7,3.9,7.1,10.8
	c0,0.1,0,0.2,0.1,0.2v0.2h0.6c0.3,0,0.5-0.2,0.5-0.5l0,0l0,0l-0.7-9.5L113.2,86.5z"/>
<path class="st1" d="M97.1,142.8h-0.5v3h0.5c0.8-0.2,1.4-1,1.2-1.8C98.2,143.3,97.7,142.9,97.1,142.8 M97.1,147.8h-0.5v3.1h-2v-10.2
	h2.5c2,0,3.6,1.6,3.6,3.6C100.6,146.2,99.1,147.8,97.1,147.8L97.1,147.8"/>
<path class="st1" d="M105.9,143.7l-0.7,3.6h1.3L105.9,143.7z M107.2,150.9l-0.3-1.5h-2l-0.3,1.5h-2.1l1.8-10.2h3l1.8,10.2H107.2z"/>
<path class="st1" d="M115.6,142.8h-0.5v3h0.5c0.8-0.2,1.4-1,1.2-1.8C116.7,143.3,116.2,142.9,115.6,142.8 M117.1,150.9l-1.1-3.1
	h-0.9v3.1h-2v-10.2h2.5c2,0,3.6,1.6,3.6,3.6l0,0l0,0c0,1.1-0.5,2.1-1.3,2.8l1.4,3.8L117.1,150.9z"/>
<rect x="123.3" y="140.7" class="st1" width="2" height="10.2"/>
<path class="st1" d="M132.5,151.1c-1.7,0-3-1.3-3-3l0,0v-0.3h2v0.3c0,0.6,0.4,1,1,1s1-0.4,1-1c0-0.4,0-0.8-1.4-1.4
	c-1.2-0.6-2.5-1.4-2.5-3.3c0-1.7,1.3-3,3-3c1.6,0,2.9,1.3,3,2.9v0.5h-2v-0.4c0-0.5-0.4-0.9-0.9-0.9l0,0l0,0c-0.5,0-1,0.4-1,0.9
	c0,0.4,0,0.8,1.4,1.4s2.6,1.4,2.6,3.3C135.6,149.8,134.3,151.1,132.5,151.1"/>
<rect x="94.5" y="165.4" class="st1" width="41" height="0.6"/>
<polygon class="st1" points="101.4,191.1 99.2,191.1 99.2,181.9 96.9,181.9 96.9,179.6 101.4,179.6 "/>
<path class="st1" d="M107.9,183.4c0,0.6,0.4,1.2,1.1,1.2c0.6,0,1.2-0.4,1.2-1c0-0.1,0-0.1,0-0.2v-0.6c0.1-0.6-0.4-1.2-1-1.3
	s-1.2,0.4-1.3,1l0,0c0,0.1,0,0.1,0,0.2C107.9,182.7,107.9,183.4,107.9,183.4z M109,179.4c1.9,0,3.4,1.6,3.4,3.5v5.2
	c0.1,1.9-1.4,3.5-3.3,3.6s-3.5-1.4-3.6-3.2c0-0.1,0-0.2,0-0.4v-0.3h2.3v0.3c-0.1,0.6,0.4,1.2,1,1.3s1.2-0.4,1.3-1l0,0
	c0-0.1,0-0.1,0-0.2v-1.4c-0.4,0.1-0.8,0.2-1.1,0.2c-1.9,0-3.4-1.5-3.4-3.4l0,0l0,0V183C105.6,180.9,107.1,179.4,109,179.4"/>
<path class="st1" d="M120.4,182.5c0-0.5-0.4-0.9-0.8-0.9l0,0h-0.1c-0.4,0.1-0.7,0.4-0.8,0.9v0.6c0,0.5,0.4,0.9,0.9,0.9h0.1
	c0.4-0.1,0.7-0.4,0.8-0.9L120.4,182.5L120.4,182.5z M120.7,187.4c0-0.6-0.5-1.1-1.1-1.1h-0.1c-0.6,0.1-1,0.6-1,1.1v0.6
	c0,0.6,0.5,1.1,1.1,1.1h0.1c0.6-0.1,1-0.6,1-1.1V187.4z M119.6,191.4h-0.3c-1.8-0.1-3.2-1.6-3.2-3.4v-0.6c0-0.9,0.4-1.7,1-2.4
	c-0.4-0.5-0.7-1.2-0.7-1.9v-0.6c0-1.7,1.4-3.2,3.2-3.2h0.3c1.6,0.1,2.9,1.5,2.9,3.1v0.6c0,0.7-0.2,1.4-0.7,1.9c0.6,0.6,1,1.5,1,2.4
	v0.6C123.1,189.9,121.6,191.5,119.6,191.4"/>
<path class="st1" d="M130.9,187.4c0-0.6-0.5-1.1-1.1-1.1s-1.1,0.5-1.1,1.1l0,0l0,0v0.6c0,0.6,0.5,1.1,1.1,1.1s1.1-0.5,1.1-1.1l0,0
	V187.4z M129.8,191.4c-1.9,0-3.5-1.6-3.4-3.5v-5.2c0-1.9,1.5-3.4,3.4-3.4c1.9,0,3.4,1.5,3.4,3.4l0,0v0.3h-2.3v-0.3
	c0-0.6-0.5-1.1-1.1-1.1s-1.1,0.5-1.1,1.1l0,0v1.4c0.4-0.1,0.8-0.2,1.1-0.2c1.9,0,3.4,1.5,3.4,3.4v0.6
	C133.2,189.8,131.7,191.4,129.8,191.4"/>
<path class="st2" d="M44,138.7L44,138.7V43h142.1L203,26H27.1v107.1c0,20.2,5.3,38.9,13.2,55.6l11.6-11.6
	C46.8,165,44.1,151.9,44,138.7"/>
<path class="st1" d="M203,50l-16.9,16.9v71.8c0,66.6-70.9,113.7-70.9,113.7H115c0,0-34.3-22.8-55.2-59.1l-11,11
	c26,42.8,66.2,69.6,66.2,69.6h0.3c0,0,87.8-58.3,87.8-140.8l0,0L203,50z"/>
</svg>
